# xmcd
#
# Track frame offsets: 
#        150
#        19591
#        34270
#        51445
#        64101
#        78468
#        94508
#        108955
#        121288
#        139013
#        154778
#        167949
#        180818
#        193804
#        205526
#        219659
#        236814
#        252909
#        267482
#        279533
#
# Disc length: 3896 seconds
#
# Revision: 0
# Processed by: cddbd v1.5.2PL0 Copyright (c) Steve Scherf et al.
# Submitted via: ExactAudioCopy v0.95b3
#
DISCID=1c0f3614
DTITLE=Various Artist - Best Country Songs
DYEAR=1900
DGENRE=Country
TTITLE0=Coward of the County
TTITLE1=Rhinestone Cowboy
TTITLE2=Heartbit in the Darkness
TTITLE3=Honky Tonk Man
TTITLE4=I love a rainy night
TTITLE5=Don't expect me to be your friend
TTITLE6=Just another love
TTITLE7=Okie from Muskogee
TTITLE8=Meet me in Montana
TTITLE9=Moment of Truth
TTITLE10=Talking in your sleep
TTITLE11=Crazy
TTITLE12=I'll never fall in love again
TTITLE13=Love hurts
TTITLE14=On the other hand
TTITLE15=(All I have to do is) Dream
TTITLE16=Games People play
TTITLE17=A little bit more
TTITLE18=Stand by your man
TTITLE19=Ruby, Don't take your love to town
EXTD=
EXTT0=
EXTT1=
EXTT2=
EXTT3=
EXTT4=
EXTT5=
EXTT6=
EXTT7=
EXTT8=
EXTT9=
EXTT10=
EXTT11=
EXTT12=
EXTT13=
EXTT14=
EXTT15=
EXTT16=
EXTT17=
EXTT18=
EXTT19=
PLAYORDER=
